<?xml version="1.0" encoding="utf-8"?>
<!-- Generator: Adobe Illustrator 23.0.3, SVG Export Plug-In . SVG Version: 6.00 Build 0)  -->
<svg version="1.1" id="Layer_1" xmlns="http://www.w3.org/2000/svg" xmlns:xlink="http://www.w3.org/1999/xlink" x="0px" y="0px"
	 viewBox="0 0 789.46 246.28" enable-background="new 0 0 789.46 246.28" xml:space="preserve">
<g>
	<title>Community-schools</title>
	<path fill="#FFFFFF" d="M357.06,246.28c-8.87-3.36-17-7.59-18.56-18.23c-0.33-2.19-2.2-5.61,2.33-6.21c3.91-0.52,4,2.17,4.53,5
		c1.57,7.78,6.56,12.24,15.26,13.38c8.94,1.17,17.8,1,23.68-7.43c3.84-5.49,1.92-12-4.11-15.56c-5.56-3.26-12-3.93-18-5.73
		c-3.49-1-7.1-1.75-10.5-3c-10.46-3.85-14.24-13.68-9.29-23.7c3.88-7.86,13.93-12.36,25.09-11.24c11.69,1.17,19.76,7,22,16.11
		c0.42,1.72,2.67,4.4-0.9,5.37c-2.75,0.74-4.42,0.14-5.63-3.46c-4-12-20.75-16.64-30.91-8.94c-3.645,2.643-5.537,7.08-4.92,11.54
		c0.49,4.6,3.47,7.43,7.8,8.66c7.47,2.11,15.07,3.81,22.48,6.14c11.05,3.47,15.4,8.75,15.31,17.71c-0.09,9.42-5.25,15.2-16.43,18.45
		c-0.615,0.3-1.178,0.694-1.67,1.17L357.06,246.28z"/>
	<path fill="#FFFFFF" d="M487.11,246.28c0-11.15,0.17-22.31,0-33.46c-0.15-9.41-3.56-13.79-10.8-14.63c-8.23-1-15.22,4-17,12.43
		c-1.92,9.1-0.63,18.37-0.9,27.56c-0.08,2.88,0.27,5.79-2,8.1H452c0.06-21.62,0-43.23,0.26-64.85c0-2.37-2-6.62,3.08-6.49
		s2.78,4.32,2.9,6.7c0.32,6.3,0.11,12.62,0.11,20.75c6.14-8.28,13.49-10.52,22.18-8.89c6.76,1.27,11.59,5.2,12,11.84
		c0.82,12.58,0.52,25.23,0.55,37.85c0,1-1.07,2.06-1.65,3.09L487.11,246.28z"/>
	<path fill="#FFFFFF" d="M643.47,246.28c-5.79-2.64-11.75-5.2-13.15-12.35c-0.31-1.6-3.1-4.26,0.9-5.15c2.36-0.53,4.22,0,4.78,3
		c1.8,9.5,14.73,11.25,22.43,7.64c3.35-1.57,5.49-3.93,5.5-7.84c0-3.71-2.24-6-5.34-7.07c-5.27-1.81-10.76-3-16.08-4.63
		c-8.62-2.71-12.09-7-11.5-13.72s5.62-11.32,13.91-12.64c11.3-1.81,19.52,1.91,22.4,10.21c0.65,1.9,2.3,4.3-0.81,5.44
		c-2.44,0.89-3.67-0.54-4.84-2.93c-3.61-7.39-10.53-9.87-18.17-7.08c-3.45,1.26-6,3.17-6.17,7.2c-0.2,3.82,2.16,6,5.18,7.15
		c3.633,1.369,7.359,2.475,11.15,3.31c7.5,1.77,15.12,3.4,16.26,12.94c0.91,7.67-2.36,11.55-13.3,16.56L643.47,246.28z"/>
	<path fill="#FFFFFF" d="M417,246.28c-16.39-8.28-22.3-24.13-15-39.95c5.399-11.681,19.245-16.774,30.926-11.375
		c0.193,0.089,0.384,0.181,0.574,0.275c3.12,1.55,5.92,3.6,7.32,6.84c1,2.44,4.23,5.7,1.17,7.62c-3.46,2.17-5-1.37-6.64-4.4
		c-5-9.32-18.22-9.66-25.15-0.91c-6.4,8.09-6.55,21.89-0.31,30.11c7.61,10,21.39,8.58,26.6-2.87c1.07-2.34,1.33-5.92,5.05-4.43
		s1.12,4.38,0.44,6.59c-2.06,6.66-7.57,9.75-13.35,12.5H417z"/>
	<path fill="#FFFFFF" d="M240.16,246.28c-0.12-22.32-0.24-44.637-0.36-66.95c0-2.14-0.32-4.42,3.09-4.53s3.31,2,3.31,4.27
		c0,20.87,0,41.74,0.05,62.6c0,1.89-1.1,3.09-1.71,4.61L240.16,246.28z"/>
	<path fill="#FFFFFF" d="M614.24,246.28c0-21.9-0.11-43.8,0-65.7c0-2.24-1.56-5.89,3.17-5.71c4.14,0.15,2.72,3.37,2.73,5.42
		c0.1,20,0,39.91,0.11,59.86c0.104,2.157-0.45,4.295-1.59,6.13H614.24z"/>
	<path fill="#FFFFFF" d="M264.79,244.44l0.21,1.84h-7.31c0-15.71-0.06-31.41-0.14-47.12c0-6.16,2.47-7.17,7.31-3.75
		c-2.92,2-3.5,5-3.53,8.26c-0.087,10.833-0.087,21.663,0,32.49C261.36,239.35,261.81,242.44,264.79,244.44z"/>
	<path fill="#FFFFFF" d="M292.76,246.28c0.1-0.65,0.19-1.3,0.28-1.95c2.006-1.493,4.754-1.493,6.76,0l0.27,1.94L292.76,246.28z"/>
	<path fill="#FFFFFF" d="M210.42,152.89c-6.53,0-13.1,0.41-19.59-0.12c-5.94-0.49-7.82,1.21-7.72,7.44
		c0.37,25-0.05,50.09,0.28,75.13c0.09,6.52-2.12,8.55-8.42,8.21c-9.44-0.52-20.63,2.71-27.9-1.34c-6.95-3.88-7.34-16.09-11.25-24.37
		s-8.33-16.47-11.95-24.93c-6.59-15.37-4.2-24.87,8.89-35.27c15-11.88,32.17-19.83,49.78-26.92c1.26-0.51,2.54-1.64,4-0.4
		c8.307,6.893,16.62,13.787,24.94,20.68L210.42,152.89z"/>
	<path fill="#FFFFFF" d="M0,150.87c14.42-12.247,28.843-24.487,43.27-36.72c13-11,13-10.94,21.85,3.78
		c3.75,6.25,7.69,12.43,9.77,19.47c4.52,15.24-0.31,29.48-13.58,40.14c-8.26,6.64-17.82,10.71-27.86,13.91
		c-4.31,1.37-5.55,0.53-5.43-4c0.25-9.48-0.15-19,0.17-28.46c0.15-4.62-1-6.52-6-6.23c-7.16,0.43-14.36,0.11-21.54,0.11L0,150.87z"
		/>
	<path fill="#FFFFFF" d="M75,243.44c-13.39,0-26.79-0.15-40.18,0.08c-5.07,0.09-6.73-1.8-6.86-6.82c-0.53-20.89-0.7-21,19.17-26.79
		c10.95-3.19,21.78-6.8,33.31-7.7c10.68-0.83,18.88,2.94,25.45,11.24c5.67,7.15,9.54,15.17,12.95,23.55c2,4.85,1.58,6.75-4.4,6.57
		C101.34,243.17,88.19,243.44,75,243.44z"/>
	<path fill="#FFFFFF" d="M449.59,111.51c11.8-10.54,22.11-10.28,30.69,1.29c2.31-3,4.73-5.79,8.28-7.29
		c12.27-5.19,23.23,0.74,24.16,13.93c0.75,10.64,0.25,21.38,0.33,32.07c0,2.33,0,4.37-3.3,4.33s-3.15-2.26-3.15-4.49
		c0-9.72,0.12-19.45-0.07-29.17c-0.18-9.38-3.27-12.91-10.95-13.17s-13.36,4.29-14,12.72c-0.7,9.19-0.25,18.47-0.55,27.7
		c-0.08,2.41,1.86,6.53-3.29,6.29c-4.53-0.2-2.67-3.92-2.72-6.13c-0.24-9.23,0.09-18.48-0.25-27.71c-0.23-6-1.53-11.84-9.16-12.81
		c-7.07-0.89-13.24,3.16-15.26,10.64c-2.64,9.78-0.59,19.85-1.32,29.75c-0.17,2.34,2.09,6.53-3.2,6.28c-4.59-0.21-2.67-3.93-2.7-6.1
		c-0.19-12.4-0.24-24.8,0-37.2c0.05-2.36-2.36-6.43,2.39-7.07S447.64,109.82,449.59,111.51z"/>
	<path fill="#FFFFFF" d="M367.72,111.91c12-11.16,22.28-10.89,31.12,1c3.109-5.407,8.824-8.789,15.06-8.91
		c10.59-0.49,16.82,4.47,17.36,15.15c0.56,10.92,0.18,21.89,0.24,32.84c0,2.12-0.17,3.78-3,3.8s-3.1-1.57-3.1-3.73
		c0-9.49,0.11-19,0-28.47c-0.14-10.09-3-14-10.51-14.59c-8.34-0.67-14,3.93-14.83,13.42s-0.37,19-0.53,28.44
		c0,2.27,0.82,5.12-3.28,4.92c-3.62-0.19-2.69-2.79-2.71-4.75c-0.08-9.49,0.09-19-0.09-28.47c-0.17-8.67-3.13-12.75-9.27-13.53
		c-7.38-0.93-13.59,3.45-15.48,11.34c-2.35,9.84-0.64,19.88-1.18,29.82c-0.12,2.33,1.32,5.84-3.35,5.55
		c-4.17-0.26-2.57-3.48-2.6-5.49c-0.14-12.65-0.21-25.3,0.06-37.95c0.05-2.31-2.32-6.49,2.61-6.83S366,110,367.72,111.91z"/>
	<path fill="#FFFFFF" d="M242.72,120c0,6.17,0.71,11.17,2.77,16c4.56,10.6,13.06,16,24.77,15.46c9.71-0.41,16.53-6.23,20-17.24
		c0.88-2.76,1.25-6.19,5.39-4.8c4,1.34,1.5,4.53,1,6.57c-3.07,12-12.44,20-24.18,21.09c-14.08,1.32-26.41-4.89-32.15-16.75
		c-6.2-12.8-6.24-25.94-0.07-38.72c8.21-17,30.6-22.59,46.18-11.85c4.718,3.078,8.128,7.795,9.57,13.24c0.33,1.26,1.63,3-0.29,3.78
		c-1.74,0.72-3.82,0.88-5.43-0.7c-0.31-0.31-0.31-0.92-0.56-1.33C282,92,274.31,88,262.7,90.82c-11.45,2.74-18.81,12.34-19.8,25.84
		C242.8,118.11,242.75,119.57,242.72,120z"/>
	<path fill="#FFFFFF" d="M558.61,148.78c-3,3.23-5.94,5.94-10,7.33c-12.57,4.29-23-1.67-24.13-14.78c-0.87-10.62-0.35-21.36-0.47-32
		c0-2.11,0.21-3.91,2.92-4.06c3-0.17,3.63,1.55,3.61,4.12c0,9.48-0.15,19,0.05,28.43s3,13,10.36,14.1c8,1.22,14-2.44,16.55-10.77
		c3-9.73,0.89-19.8,1.47-29.7c0.1-1.67-0.08-3.48,0.51-5s2.49-1.45,3.88-1.09c2.61,0.67,2,3,2,4.81c0,12.88,0.14,25.76-0.09,38.64
		c0,2.39,2.08,6.52-2.67,6.89C557.51,156.09,561,151.13,558.61,148.78z"/>
	<path fill="#FFFFFF" d="M768.89,157.2c-10.51-0.06-17.68-4.66-19.69-12.82c-0.39-1.62-1.85-3.94,1.14-4.69
		c2.3-0.57,3.6,0.12,4.76,2.81c3.9,9.12,14.21,12.25,23,7.58c3-1.62,5-4,5.06-7.43c0.133-3.307-2.003-6.281-5.18-7.21
		c-5.26-1.8-10.73-3-16.05-4.63c-9-2.8-12.49-7.2-11.7-14.25c0.74-6.59,6-11,14.28-12.22c11.34-1.6,19.91,2.44,22.12,10.61
		c0.44,1.63,2,4-0.72,5c-2.2,0.8-3.79,0.09-5-2.56c-3.83-8-12.61-10.79-19.91-6.71c-6.07,3.38-6.22,9.54-0.29,13.16
		c3.81,2.34,8.23,2.86,12.45,3.88c12.1,2.92,17.27,7.91,16.25,16C788.28,152.12,780.48,157.26,768.89,157.2z"/>
	<path fill="#FFFFFF" d="M583.88,111.6c3.82-3.8,7.64-6.89,13.13-7.44c13.06-1.31,20,4.17,20.55,17.2
		c0.39,9.7,0.21,19.43,0.15,29.14c0,2.16,1.07,5.19-3,5.3s-3.2-2.79-3.21-5.07c-0.07-9,0.08-18-0.12-27
		c-0.22-9.81-3.76-14.17-11.48-14.71c-8.49-0.6-15.68,5-16.41,14s-0.31,18-0.56,26.93c-0.06,2.34,1.35,5.81-3.2,5.8
		s-3.13-3.5-3.15-5.82c-0.12-12.63-0.16-25.26,0-37.89c0-2.46-1.9-6.33,2.92-6.83S582.25,109.45,583.88,111.6z"/>
	<path fill="#FFFFFF" d="M299.8,244.34c-2.203,0.675-4.557,0.675-6.76,0c0-10.65,0.22-21.3,0-32c-0.24-9.42-3.73-13.56-11.09-14.2
		c-7.822-0.788-14.976,4.461-16.57,12.16c-0.475,2.622-0.669,5.287-0.58,7.95c-0.05,8.71,0,17.43,0,26.15
		c-4.83,1.39-6.41-0.36-6.3-5.37c0.29-12.9,0.21-25.81,0-38.71c-0.07-4.84,1.23-7.1,6.33-5v5.86c3.79-3.36,6.6-6.61,11-7.64
		c13.91-3.28,22.89,3,23.63,17.38C300,222.1,299.72,233.23,299.8,244.34z"/>
	<path fill="#FFFFFF" d="M142,18.56c-3.18,5.8-7.17,10.43-13.74,8.9c-8.34-1.94-16.09-3-23.72,6.07c0-10.91-0.3-19.29,0.1-27.64
		c0.27-5.68,4.43-7.42,10-4.48c4.8,2.53,8,6.93,11.72,10.77C130.49,16.55,134.86,20.29,142,18.56z"/>
	<path fill="#FFFFFF" d="M653.72,130.87c0-3.88-0.05-7.76,0-11.65c0.06-4.69,1.43-10.26-6.67-8.88c-1.43,0.25-2.12-0.74-2.11-2.22
		c0-1.66,0.58-3.1,2.41-2.8c7.82,1.28,6.27-4.21,6.36-8.57c0-1.21,0-2.42,0-3.64c-0.06-2,0.6-3.12,2.89-3.13
		c2.11,0,3.18,0.72,3.16,2.89c0.115,2.178,0.115,4.362,0,6.54c-0.5,4.38,1,6.36,5.64,5.85c2.06-0.23,4.71-0.54,4.61,2.91
		c-0.1,3.22-2.73,2.39-4.33,2.18c-5-0.68-6.13,1.58-6,6.17c0.31,9,0.11,18,0.1,26.93c0,4.7,1.19,8.26,7,7.8
		c1.88-0.14,3.45,0.12,3.25,2.61s-2.1,2.2-3.74,2.38c-8.53,0.95-12.3-2.25-12.51-10.81C653.62,140.58,653.72,135.72,653.72,130.87z"
		/>
	<path fill="#FFFFFF" d="M635.69,130.11c0,7.06,0,14.11,0,21.16c0,2.17,0.33,4.47-3,4.63c-3.81,0.17-3.56-2.31-3.56-4.82
		c0-13.62,0-27.24,0-40.86c0-2.47-0.34-5.15,3.39-5.08s3.2,2.91,3.22,5.27C635.71,117,635.69,123.54,635.69,130.11z"/>
	<path fill="#FFFFFF" d="M687.41,130.19c0,7,0,14.07,0,21.1c0,2,0.66,4.47-2.92,4.54s-3.07-2.26-3.07-4.39c0-13.82,0-27.64,0-41.46
		c0-2-0.65-4.54,2.91-4.6s3.07,2.31,3.08,4.44C687.42,116.61,687.41,123.4,687.41,130.19z"/>
	<path fill="#FFFFFF" d="M635.77,90.77c-0.29,2,0.93,4.92-3.07,5.13c-3.64,0.18-3.89-2-3.67-4.59c0.21-2.4-1.11-5.7,3.33-5.71
		C636.1,85.59,635.67,88.27,635.77,90.77z"/>
	<path fill="#FFFFFF" d="M687.45,90.49c-0.14,2.77,0.72,5.52-3.28,5.31s-2.62-3.22-2.74-5.24c-0.12-2.21-0.81-5,3.19-4.85
		S686.74,89.12,687.45,90.49z"/>
	<path fill="#FFFFFF" d="M548.29,208.42c-3.135-9.282-11.883-15.496-21.68-15.4c-10.19-0.16-18.18,5.19-22,14.79
		c-6.11,15.32-1.01,28.72,14.65,38.47h13.11C547.98,238.35,554,224.02,548.29,208.42z M539.06,235.03
		c-4.907,6.091-13.426,7.881-20.37,4.28c-6.3-3.31-9.96-10.57-9.93-22.06c-0.077-7.205,3.826-13.865,10.15-17.32
		c6.79-3.78,15.41-1.68,20.28,4.5C545.73,212.73,545.66,226.89,539.06,235.03z"/>
	<path fill="#FFFFFF" d="M602.53,207.95c-3.8-9.68-11.74-14.98-22-14.88c-10.26,0.1-18.21,5.7-21.74,15.32
		c-5.74,15.71,0.3,30.04,16,37.89h11.65C602.65,238.69,608.84,223.95,602.53,207.95z M593.9,234.58c-4.69,6.29-13.29,8.55-20.17,5
		c-8.05-4.2-10.64-11.66-10.56-20.11s2.72-16,11-19.81c12.2-5.73,24.16,4.21,24.21,20.74
		C598.541,225.498,596.961,230.5,593.9,234.58z"/>
	<path fill="#FFFFFF" d="M141.4,91.68c-4.77-4.15-7.86-13.58-5.24-18.83c2.4-4.79,7.44-1.04,11.1-2.19l1.84-0.54
		c-0.1-0.73,0.03-1.39-0.17-1.59c-13.29-11.09-26.66-21.97-39.88-33.09c-3.08-2.58-5.08-1.24-7.54,0.76
		C88.98,46.62,76.36,56.95,63.79,67.33c-0.87,0.72-2.11,1.38-0.93,3.38c2.79,0,5.9,0,9,0c1.42,0.02,3.5-0.1,3.3,1.83
		c-0.62,5.92,3.18,12.78-3.45,17.52c-1.9,1.39-3.16,2.69-1.54,5.39c6.47,10.84,12.26,22.11,21.47,31.11
		c9.83,9.57,21.49,13.42,34.76,9.93c15.73-4.12,30.17-11.59,46-17.86C161.54,109.21,151.48,100.44,141.4,91.68z M111.04,127.78
		c-8.51-0.35-15.7-8.96-15.67-18.78c0-9.29,6-16.16,14.12-16.16c8.81,0,16.47,9,16.21,19C125.47,120.78,118.79,128.04,111.04,127.78
		z"/>
	<path fill="#FFFFFF" d="M708.5,132.2c4.83,0.41,9.72,0.09,14.59,0.09l9.54-0.08c11.12,0,11.45-0.41,8.56-11.41
		c-2.71-10.3-10.16-16.5-20.23-16.84c-10.76-0.4-18.59,5.08-21.89,15.6c-2.78,8.91-2.58,17.83,1.61,26.28
		c4.29,8.66,11.88,11.61,21.13,11.25c8.56-0.29,14.9-3.95,18.32-12c0.72-1.79,2.83-4.14,0-5.5c-2.44-1.13-4.41,0.18-5.55,3
		c-2.95,7.24-8.58,10.24-16.28,9.31c-7.32-0.89-12.04-5.7-14.19-13.7C703.01,134.07,703.22,131.75,708.5,132.2z M705.78,118.79
		c3.29-6.92,9.61-10.76,16.32-9.62c7.26,1.24,11.38,6,13.29,12.84c0.87,3.09,0.34,5.17-3.67,5c-4.35-0.24-8.72-0.08-13.1-0.07
		c-2.67,0-5.33,0-8,0C702.72,126.94,702.28,126.15,705.78,118.79z"/>
	<path fill="#FFFFFF" d="M329.04,104c-14.43-0.23-24.49,10.82-24.43,26.72c0.11,15.63,9.85,26.44,24,26.47s23.87-10.64,24-26.35
		C352.73,115.18,343.13,104.22,329.04,104z M340.27,147.2c-8.14,8.3-21.53,5.9-26.7-5c-3.62-7.317-3.62-15.903,0-23.22
		c2.89-6.13,7.87-9.9,14.89-9.94c7.3,0,12.32,3.77,15.44,10.22c1.567,3.587,2.465,7.43,2.65,11.34
		C346,136.69,344.81,142.6,340.27,147.2z"/>
</g>
</svg>
