<?xml version="1.0" encoding="utf-8"?>
<!-- Generator: Adobe Illustrator 23.0.3, SVG Export Plug-In . SVG Version: 6.00 Build 0)  -->
<svg version="1.1" id="Layer_1" xmlns="http://www.w3.org/2000/svg" xmlns:xlink="http://www.w3.org/1999/xlink" x="0px" y="0px"
	 viewBox="0 0 496 496" enable-background="new 0 0 496 496" xml:space="preserve">
<g>
	<path fill="#FFFFFF" d="M48,160h32v16H48V160z"/>
	<path fill="#FFFFFF" d="M472,128c13.23,0,24-10.77,24-24V24c0-13.23-10.77-24-24-24H360c-13.23,0-24,10.77-24,24v80
		c0,13.23,10.77,24,24,24h24v16h-16v16h40v80h-33.016c-6.383-6.23-14.242-11-23.039-13.625c0.039-0.809,0.055-1.59,0.055-2.375
		c0-35.289-28.711-64-64-64c-21.895,0-42.246,11.391-53.902,29.609C225.887,185.922,217.008,184,208,184
		c-26.551,0-50.457,16.734-59.809,41.281c-6.078,1.305-11.742,3.641-16.887,6.719H72v-24h32c13.23,0,24-10.77,24-24V24
		c0-13.23-10.77-24-24-24H24C10.77,0,0,10.77,0,24v160c0,13.23,10.77,24,24,24h32v40h58.289c-3.402,4.855-6.043,10.215-7.777,16H72
		v88H40c-13.23,0-24,10.77-24,24v72H0v24c0,13.23,10.77,24,24,24h128c13.23,0,24-10.77,24-24v-24h-16v-72c0-13.23-10.77-24-24-24H88
		v-72h16c0,30.871,25.129,56,56,56h176c28.152,0,51.457-20.91,55.359-48H424v64h-56v144h128V352h-56v-80h-48.672
		c-0.832-5.633-2.559-10.992-4.977-16H424v-96h40v-16h-16v-16H472z M112,128H16V48h96V128z M24,16h80c4.414,0,8,3.586,8,8v8H16v-8
		C16,19.586,19.586,16,24,16z M16,184v-40h96v40c0,4.414-3.586,8-8,8H24C19.586,192,16,188.414,16,184z M160,472
		c0,4.414-3.586,8-8,8H24c-4.414,0-8-3.586-8-8v-8h144V472z M144,376v72H32v-72c0-4.414,3.586-8,8-8h96
		C140.414,368,144,371.586,144,376z M384,480v-48h96v48H384z M480,416h-96v-48h96V416z M336,320H160c-22.055,0-40-17.945-40-40
		c0-20.223,15.137-37.281,35.199-39.68l5.25-0.633l1.48-5.078C167.848,214.23,186.801,200,208,200c8.832,0,17.504,2.48,25.105,7.16
		l7.637,4.711l3.809-8.137C252.426,186.879,269.48,176,288,176c26.473,0,48,21.527,48,48c0,2.207-0.199,4.559-0.633,7.398
		l-1.207,7.914l7.91,1.199C361.414,243.465,376,260.441,376,280C376,302.055,358.055,320,336,320z M360,16h112c4.414,0,8,3.586,8,8
		v56H352V24C352,19.586,355.586,16,360,16z M352,104v-8h128v8c0,4.414-3.586,8-8,8H360C355.586,112,352,108.414,352,104z M432,144
		h-32v-16h32V144z"/>
	<path fill="#FFFFFF" d="M400,384h16v16h-16V384z"/>
	<path fill="#FFFFFF" d="M448,448h16v16h-16V448z"/>
	<path fill="#FFFFFF" d="M432,384h32v16h-32V384z"/>
	<path fill="#FFFFFF" d="M400,448h32v16h-32V448z"/>
</g>
</svg>
