<?xml version="1.0" encoding="utf-8"?>
<!-- Generator: Adobe Illustrator 23.0.3, SVG Export Plug-In . SVG Version: 6.00 Build 0)  -->
<svg version="1.1" id="Layer_1" xmlns="http://www.w3.org/2000/svg" xmlns:xlink="http://www.w3.org/1999/xlink" x="0px" y="0px"
	 viewBox="0 0 284.79 486.16" enable-background="new 0 0 284.79 486.16" xml:space="preserve">
<g>
	<title>IPSlogo</title>
	<path fill="#FFFFFF" d="M284.72,0c0,4.19,0.07,8.38,0.07,12.57v155.5h-57.11v39.55l-26.93-2.81v-62.9h57.33V27.07H27.52v115h58
		v62.6l-26.24,3.37v-39.71H55.7c-17.44,0-34.877,0-52.31,0c-1.13,0-2.26-0.15-3.39-0.23V0H284.72z"/>
	<path fill="#FFFFFF" d="M0,317.31h13.09v120.63l14.35-2.15v23.67h231v-2.9c0-10.39,0-20.77,0.06-31.16
		c0.042-1.251,0.578-2.434,1.49-3.29c11.31-8.5,15.66-20.29,16-33.86c0.26-10.09,0.18-20.2,0.08-30.3
		c-0.11-11.62-5-21.52-11.52-30.79c-2.05-2.93-4.22-5.77-6.57-9h26.76v168H0.49v-3.39c-0.047-19.18-0.1-38.33-0.16-57.45
		c0-1.7-0.2-3.4-0.3-5.1L0,317.31z"/>
	<path fill="#FFFFFF" d="M151.44,347.17l39.3,1.62c0,5.38,0.15,10.6-0.06,15.8c-0.11,2.68,0.7,3.51,3.4,3.76
		c7.66,0.71,15.28,1.81,23.3,2.81c0-4.68,0.09-9.13-0.08-13.57c0-0.86-1-1.78-1.67-2.51c-18.09-19.08-36.14-38.2-54.35-57.16
		c-6.511-6.575-10.06-15.52-9.83-24.77c0.05-7.33-0.15-14.67,0-22c0.41-15.67,10.88-28.63,29-27.14
		c15.94,1.32,31.91,2.38,47.85,3.68c15.74,1.27,27.18,13.53,27.56,29.72c0.24,10.38,0.05,20.77,0,31.15
		c-0.029,0.503-0.085,1.004-0.17,1.5c-6.56-1-13-2.21-19.47-3s-12.88-1.17-19.62-1.76v-18.95l-26.14-2.45c-0.1,5.18-0.7,9.6,3.48,14
		c16.63,17.56,32.79,35.58,49,53.53c5.33,5.89,10,12.32,11.57,20.36c0.613,3.077,0.948,6.203,1,9.34c0.12,8.85,0,17.71,0,26.57
		c0,13.76-7.87,22.34-21.7,22.68c-8.06,0.21-16.15-0.64-24.22-1.22c-10.64-0.76-21.25-1.8-31.89-2.59
		c-15.05-1.11-25.7-11.41-26.46-26.57c-0.5-10.55-0.1-21.14-0.1-31.72C151.207,347.902,151.307,347.53,151.44,347.17z"/>
	<path fill="#FFFFFF" d="M136.96,247.82c-0.06-11.52-6.62-20.08-17.5-22.82c-3.423-0.83-6.939-1.213-10.46-1.14
		c-18.947,0.477-37.846,2.123-56.59,4.93c-6.58,0.93-13.13,2.13-19.74,3.13l0.04,182.95l39.39-5.7V343
		c0.89-0.14,1.63-0.32,2.37-0.37c12.16-0.83,24.32-1.71,36.49-2.44c15.53-0.91,25.9-11.41,26-26.91
		C137.067,291.46,137.067,269.64,136.96,247.82z M98.43,301.67l-26.67,2.14c0-12.42-0.03-24.32,0.08-36.22
		c0.051-0.224,0.13-0.438,0.233-0.638c0.31-0.599,0.837-1.069,1.487-1.302c8.19-1.02,16.4-1.88,24.87-2.81
		C98.43,262.84,98.43,301.67,98.43,301.67z"/>
</g>
</svg>
