<?xml version="1.0" encoding="utf-8"?>
<!-- Generator: Adobe Illustrator 23.0.3, SVG Export Plug-In . SVG Version: 6.00 Build 0)  -->
<svg version="1.1" id="Layer_1" xmlns="http://www.w3.org/2000/svg" xmlns:xlink="http://www.w3.org/1999/xlink" x="0px" y="0px"
	 viewBox="0 0 1131.08 253.17" enable-background="new 0 0 1131.08 253.17" xml:space="preserve">
<g>
	<g>
		<title>UWS</title>
		<path fill="#FFFFFF" d="M1131.08,144.08c-6.09,11.6-24.77,15.68-35.36,7.72c-0.828-0.548-1.563-1.223-2.18-2
			c-2-2.9-5.16-5.94-2.82-9.54c1.35-2.09,10.34,0.57,12.1,3.07c3,4.29,11.07,4.94,14.69,1.08c2.79-3,0.59-4.6-2-5.43
			c-4.9-1.57-10-2.64-14.88-4.15c-7.3-2.25-10.27-6.59-9.74-13.67c0.133-1.83,0.698-3.602,1.65-5.17
			c6.66-11.14,28.51-10.92,34.77,0.38c1,1.87,2.6,4.11,1.37,6c-1,1.5-3.4,0.39-5.18,0.51c-3.29,0.23-6-0.18-7.83-3.74
			c-1.35-2.61-8.62-3-11-1.25s-2.24,4.49,0.51,5.92c3.73,1.94,7.87,2.64,11.94,3.46c6.12,1.22,11.31,3.73,14,9.82L1131.08,144.08z"
			/>
		<path fill="#FFFFFF" d="M599.47,125.4c-1.81,8.09-3.76,16.14-5.36,24.27c-0.65,3.3-1.81,5.09-5.48,4.44
			c-1.489-0.21-3.001-0.21-4.49,0c-2.56,0.27-3.75-0.6-4.47-3.27c-3.4-12.69-7-25.33-10.68-37.94c-0.76-2.57-0.53-3.43,2.45-3.51
			c9.22-0.26,9.25-0.4,11.19,8.5c1.21,5.53,2.32,11.08,3.47,16.61c0.27,1.26,0.16,2.71,2.46,3.64c1.54-7.86,3-15.56,4.57-23.25
			c0.38-1.87,0-4.82,2-5.2c3.448-0.505,6.952-0.505,10.4,0c1.21,0.14,1.23,2.16,1.51,3.45c1.77,8.42,3.56,16.84,6.21,25.38
			c1.927-8.16,3.843-16.333,5.75-24.52c0.4-1.69,0-4.2,2.35-4.43c3.331-0.302,6.684-0.235,10,0.2c1,0.13,0.2,1.73-0.05,2.61
			c-3.68,13-7.44,25.9-11,38.89c-0.62,2.25-1.69,3-3.84,2.81c-1.661-0.186-3.339-0.186-5,0c-3.64,0.58-4.82-1.1-5.47-4.48
			c-1.55-8.11-3.53-16.13-5.34-24.19L599.47,125.4z"/>
		<path fill="#FFFFFF" d="M925.76,113.89c5-4.63,9.77-6.54,15.43-5.86c6.66,0.8,11.27,4.51,12.27,11.11
			c1.66,10.91,0.78,21.92,0.7,32.9c0,1.47-0.75,1.83-2.13,2.06c-8.42,1.38-9.61,0.41-9.64-8.15c0-6.16,0.05-12.32-0.11-18.47
			c-0.18-6.45-2.59-9.56-7.08-9.56c-5.12,0-8.71,3.82-9.29,9.72c-0.675,7.296-0.715,14.637-0.12,21.94c0.25,3.4-0.62,5-4.29,4.52
			c-1.492-0.16-2.998-0.16-4.49,0c-2,0.13-3-0.33-3-2.68c0.067-18.48,0.067-36.957,0-55.43c0-1.89,0.65-2.82,2.6-2.67
			c0.5,0,1,0,1.5,0c8.84,0.08,7.49-0.95,7.64,7.21C925.82,104.52,925.76,108.51,925.76,113.89z"/>
		<path fill="#FFFFFF" d="M824.28,140c2.87-0.47,5.22,0.25,7.12,3.74c2.13,3.91,10.72,4.1,14,0.88c2.4-2.39,1.36-4.39-1.21-5.41
			c-3.22-1.29-6.65-2-10-3c-2.603-0.591-5.171-1.328-7.69-2.21c-6.368-2.489-9.512-9.669-7.023-16.038
			c0.486-1.242,1.169-2.398,2.023-3.422c7.06-9,25.53-9.07,32.52-0.09c1.83,2.34,4.46,6.06,2.4,7.87c-2.26,2-6.65,0.86-10.09,0.31
			c-0.49-0.08-1-0.89-1.24-1.47c-2.22-5-6.55-4.37-10.71-4c-1.734,0.155-3.127,1.494-3.35,3.22c-0.44,2.14,1,3,2.54,3.7
			c4.41,2.08,9.26,2.59,13.89,3.88c7.76,2.16,11.45,6,11.6,12.35s-3.8,11.59-10.75,14c-7.22,2.47-14.44,1.91-21.51-0.61
			c-3.171-1.156-5.781-3.477-7.3-6.49C816.35,141.22,817,140,824.28,140z"/>
		<path fill="#FFFFFF" d="M359.37,114.66c4.43-4.48,8.61-7,14.26-6.73c7.88,0.43,12.77,4.46,14.37,12.63
			c2,10.45,0.51,20.93,0.22,31.4c0,1.42-0.61,1.91-2.05,2.16c-8.29,1.45-9.76,0.28-9.79-8.07c0-6.83,0-13.66-0.16-20.49
			c-0.07-3.87-1.5-6.91-5.84-7.4s-7.67,1-9.23,5.15c-2,5.25-1.8,10.8-1.69,16.3c0.05,2.49,0.34,5,0.34,7.48
			c0,8.59,0.66,6.55-6.71,7.07c-4.25,0.3-5.27-1.08-5.16-5.21c0.32-11.32,0-22.66,0.25-34c0-1.95-1.92-6,2.5-5.43
			C353.93,109.91,359.92,105.71,359.37,114.66z"/>
		<path fill="#FFFFFF" d="M324.25,149.31c-3.81,4.68-8.46,6.79-14.22,6.22c-8.12-0.8-12.08-4.18-13.34-12.23
			c-1.63-10.41-0.73-20.92-0.64-31.39c0-2,1-2.4,2.75-2.58c9.14-1,9.15-1,9.16,8.24c0,6.49-0.09,13,0,19.47
			c0.11,5.77,1.93,7.94,6.46,8.24c5.69,0.38,9.24-2.1,9.61-7.66c0.47-7.29,0.21-14.63,0.41-21.94c0-2.05-0.84-5.16,1.36-5.83
			c2.9-0.87,6.27-0.58,9.37-0.22c1.53,0.18,1,2.23,1,3.49c0.05,12.48,0,25,0.12,37.44c0,3-1.05,3.79-3.76,3.54
			c-1.81-0.17-3.66,0-5.49,0C323.63,154.11,326,150.91,324.25,149.31z"/>
		<path fill="#FFFFFF" d="M864.16,132.05c0-19.09,15.48-29.71,31.29-21.85c4.88,2.42,8.19,6.16,9.34,11.62
			c0.45,2.15,0.19,3.55-2.55,3.41c-4.39-0.24-8.68,1-11.6-4.69c-2.41-4.72-10.15-3-12.48,2.41c-2.26,5.23-2.08,10.75-0.62,16.15
			c0.85,3.16,2.57,5.89,6.29,6.26s6.33-1.38,8.14-4.59c1.34-2.4,10.31-4.28,12.39-2.63c1.4,1.12,0.36,2.44,0,3.63
			c-2.25,8.48-9.6,13.81-19,13.89c-10.25,0.09-17.54-5.17-20-14.66C864.504,138.096,864.099,135.077,864.16,132.05z"/>
		<path fill="#FFFFFF" d="M425,133c0-3-0.05-6,0-9c0.06-3.17,0.08-6-4.46-6c-3.18,0.06-2.17-2.73-2.32-4.51s-0.35-4.23,2.3-4
			c4.73,0.38,4.34-2.55,4.5-5.67c0.12-2.18-1.3-5.46,1.12-6.34c2.65-1,5.91-0.32,8.89-0.19c1.26,0.06,1.3,1.3,1.33,2.3
			c0.06,1.82,0.2,3.66,0.1,5.48c-0.16,3.06,0.83,4.76,4.24,4.25c2.64-0.39,3.72,0.87,3.22,3.44c-0.42,2.12,1.14,5.65-3.18,5.22
			c-3.71-0.38-4.43,1.33-4.34,4.6c0.17,5.81,0.08,11.64-0.13,17.45c-0.12,3.43,0.95,5.57,4.65,5.48c3.4-0.08,3.09,2.15,2.93,4.36
			s0.55,5-3.13,5c-3,0-6,0.33-8.93-0.42c-4-1-6.2-3.48-6.82-7.58C424.26,142.26,424.84,137.62,425,133z"/>
		<path fill="#FFFFFF" d="M1080.8,124c0,8.64-0.13,17.28,0.07,25.92c0.07,3.23-0.84,4.63-4.18,4.15c-1.328-0.162-2.672-0.162-4,0
			c-2.67,0.31-3.77-0.5-3.75-3.47c0.12-17.94,0.08-35.88,0-53.82c0-2.46,0.57-3.8,3.3-3.52c1.328,0.162,2.672,0.162,4,0
			c3.43-0.46,4.66,0.8,4.57,4.36c-0.23,8.8-0.08,17.61-0.08,26.41L1080.8,124z"/>
		<path fill="#FFFFFF" d="M700.75,115.18c2.68-3.88,5.5-7,10.37-7.14c2.44-0.08,3.89,0.32,3.57,3.16c-0.141,1.33-0.141,2.67,0,4
			c0.34,3.3-0.29,5-4.38,5.1c-6.35,0.14-9.12,2.8-9.7,9.14c-0.52,5.78-0.08,11.63-0.23,17.45c-0.23,8.29,1.91,7.06-8,7.18
			c-1.87,0-3.64,0.25-3.61-2.64c0.11-13.14,0.08-26.29,0.09-39.43c0-1.5,0.31-2.65,2.16-2.63c2.33,0,4.67-0.16,7,0.07
			C701.63,109.79,699.19,113,700.75,115.18z"/>
		<path fill="#FFFFFF" d="M733.28,124c0,8.65-0.14,17.29,0.08,25.93c0.08,3.25-0.85,4.58-4.15,4.15c-1.49-0.15-2.99-0.15-4.48,0
			c-2.05,0.15-3-0.48-3-2.75c0.047-18.28,0.047-36.567,0-54.86c0-2.31,0.74-3.41,3.16-3.23c1.489,0.155,2.991,0.155,4.48,0
			c3-0.39,4,0.8,4,3.87c-0.18,9-0.07,18-0.07,26.93L733.28,124z"/>
		<path fill="#FFFFFF" d="M400,131.39c0-5.83,0.25-11.67-0.1-17.48c-0.23-3.91,1.21-5.08,4.81-4.58c1.33,0.131,2.67,0.131,4,0
			c2.14-0.16,3,0.77,3,2.89c0,12.98,0.033,25.963,0.1,38.95c0,2.11-0.68,3.12-2.86,2.91c-0.83-0.105-1.67-0.105-2.5,0
			c-5,0.83-7.07-0.82-6.54-6.25S400,136.88,400,131.39z"/>
		<path fill="#FFFFFF" d="M405.38,102c-5.29,1.55-5.21-1.56-5.58-5.54c-0.53-5.71,2.56-5.32,6.48-5.45
			c4.11-0.13,5.65,0.63,5.72,5.33C412.08,101.75,410.16,103.13,405.38,102z"/>
		<path fill="#FFFFFF" d="M535.29,93.3c-1.663,0.151-3.337,0.151-5,0c-3.18-0.36-4.1,1-4,4c0.13,5.22,0,10.52,0,16.22
			c-15.62-12.52-28.69-2.04-30.8,12.49c-0.715,4.275-0.603,8.647,0.33,12.88c3.7,15.79,15.08,20.76,28.92,12.58
			c0.68-0.39,1.68-1.35,2-0.27c1.74,5.91,6.36,1.8,9.49,2.8c1.78,0.56,2-1.08,2-2.52c0-18.45,0-36.91,0-55.36
			C538.29,93.91,537.41,93.15,535.29,93.3z M516.9,145.75c-4.93,0.11-9.14-5.31-9.71-12.64c-0.478-3.844,0.523-7.726,2.8-10.86
			c4.46-5.83,11.73-5.14,14.94,1.4c1.196,2.561,1.866,5.336,1.97,8.16C526.8,139.96,522.6,145.62,516.9,145.75z"/>
		<path fill="#FFFFFF" d="M785.19,149.66c0.08-16.31,0.08-32.62,0.08-48.93c0-7.74,0-7.61-7.82-7.52c-2.77,0.03-3.86,0.8-3.77,3.67
			c0.12,5.27,0,10.54,0,17c-12.5-10.88-27.08-5.7-30.58,9.88c-1.098,4.872-1.213,9.913-0.34,14.83c2.58,15.34,18.26,22.6,28.76,13
			c1.15-1.05,1.65-1.16,2.65,0.75c2.11,3.87,6.2,1.3,9.35,1.55C786.45,154.11,785.19,151.17,785.19,149.66z M770.63,142.49
			c-2.69,3.19-6.31,3.58-10,2.31c-4.05-1.4-6.69-7.7-6.32-14.12c0.36-6.23,3-10.27,7.57-11.64s8,0.22,10.21,4.64
			c1.325,2.723,1.98,5.723,1.91,8.75C774.074,136.072,772.883,139.627,770.63,142.49z"/>
		<path fill="#FFFFFF" d="M468.61,108c-9.19-0.06-15.8,4-18.93,11.89c-2.351,5.547-3.046,11.657-2,17.59
			c2.09,11.14,9.71,17.8,21,18.33c8.85,0.45,17.54-4.65,19.76-11.55c0.37-1.2,1.36-3.31-0.47-3.2c-4.18,0.24-8.76-2.14-12.55,2.05
			c-4.97,5.51-12.94,3.3-15.3-3.91c-0.88-2.71-0.91-4.24,2.83-4.11c7.81,0.26,15.63,0.07,23.45,0c1.5-0.01,3.21,0.62,3.61-2.09
			c0.211-1.255,0.309-2.525,0.295-3.797C490.169,117.357,480.456,107.864,468.61,108z M473.62,127.24c-1.666-0.086-3.334-0.086-5,0
			l0.04-0.09c-1.155,0.095-2.315,0.095-3.47,0c-1.68-0.27-4,1.1-4.91-0.89s0.61-3.84,1.8-5.42c4.06-5.44,11.52-4.3,14.38,2.08
			C477.84,125.99,477.46,127.62,473.62,127.24z"/>
		<path fill="#FFFFFF" d="M1037.92,107.93c-13.71,0.03-23.09,9.53-23.09,23.33c0.03,14.38,9.9,24.76,23.18,24.65
			s22.87-10.5,22.84-24.48S1051.63,107.9,1037.92,107.93z M1046.13,141.16c-2.66,4-8.65,5.73-12.8,3.35
			c-4.89-2.82-6.12-7.61-6.23-12.82c-0.11-5.21,1.28-9.59,6.09-12.25c5.79-3.19,11.23-1.22,13.92,4.87
			c0.923,2.389,1.387,4.929,1.37,7.49C1048.4,135.31,1047.94,138.41,1046.13,141.16z"/>
		<path fill="#FFFFFF" d="M657.77,107.94c-13.59,0.03-23.34,9.76-23.34,23.25c0.03,14.16,10,24.7,23.27,24.73
			s22.76-10.13,22.76-24.4C680.47,117.37,671.36,107.91,657.77,107.94z M666.25,140.64c-2.679,4.453-8.281,6.177-13,4
			c-7.13-3.56-8.59-19.35-2.23-24.19c6.36-4.84,13.34-2.69,16.17,4.66c0.763,2.215,1.122,4.548,1.06,6.89
			C668.407,135.011,667.714,138.005,666.25,140.64z"/>
		<path fill="#FFFFFF" d="M986.7,107.99c-14.39,0.03-23.88,9.49-23.8,23.72c0.1,13.94,9.76,24.29,22.53,24.15
			c13.97-0.22,23.71-10.22,23.6-24.22C1008.92,117.82,999.61,107.99,986.7,107.99z M995.56,138.62c-1.57,4.27-4.76,6.87-9.35,6.95
			c-4.82,0.09-8.12-2.56-9.84-7c-0.898-2.159-1.327-4.483-1.26-6.82c0-3.91,0.83-7.07,2.95-9.78c4.73-6,13.52-5.24,16.81,1.65
			C997.175,128.307,997.425,133.741,995.56,138.62z"/>
	</g>
	<g>
		<path fill="#FFFFFF" d="M274.66,126c-3.09-1.05-2.02-3.82-2.24-5.82c-0.62-5.62-0.69-11.3-1.35-16.92
			c-2.17-18.47-7.35-35.94-19.35-50.56c-24.41-29.71-56.71-44.16-94.41-47.77c-0.086,0-0.172-0.006-0.258-0.011
			c0.086,0.03,0.172,0.049,0.258,0.081c-1.978,0.712-4.258-0.615-6.097,0.951c13.141,4.538,26.808,7.598,39.587,13.149
			c2.898,1.262,6.208,1.999,8.112,4.941c-0.915,0.113-1.824,0.269-2.722,0.479c-6.16,1.83-11.42,1.72-16.86-3.17
			c-6.16-5.53-14.25-7.01-24.05-5.83c8,4.8,15.87,7.65,20.6,15.21c-8.41,3.14-16.89,4.39-25.41,5.67
			c-10.38,1.55-10.36,1.61-11.05-8.94c-0.586-6.522-0.216-13.095,1.1-19.51c-4.88,3.13-7.11,6.51-8.35,10.57
			c-1.368,4.984-1.975,10.145-1.8,15.31c0.01,1.27,0.96,3.52-1.56,3.33c-9.04-0.68-18.01-1.85-27.22-5.14
			c8.39-8.68,16.23-16.83,24.13-24.91c1.88-1.93,4.05-3.3,7-0.39c-0.56-4.75-3.24-5.29-6.24-5C122.55,2.1,119.21,4.01,116,6.1
			c-8.496,5.622-16.078,12.516-22.48,20.44c-1.73,2.14-3.03,2.49-5.31,1.14c-2.81-1.67-5.77-3.06-9-4.75
			c5.36-4.61,11.23-7.44,16.62-11c3.79-2.51,8.49-3.76,11.2-7.82c-1.55-0.44-2.89,0.15-4.32,0.68c-22.63,8.4-43.54,19.22-60.32,37.4
			c-12.12,13.11-21.47,27.37-26,44.65c-2.001,7.721-3.408,15.584-4.21,23.52c-0.3,2.97-1.11,3.37-3.63,1.91
			c-2.1-1.23-3.72-3.43-6.47-3.43c-0.08,4.07,3.07,6.39,5.5,8.9c2.537,2.603,3.97,6.085,4,9.72c0.136,9.811,1.479,19.568,4,29.05
			c8.75,31.28,29.82,51.82,57.82,66.28c2.807,1.358,5.121,3.556,6.62,6.29c4.735,8.605,10.85,16.375,18.1,23
			c1.31-2.96-0.85-5.17-1.69-7.63c-1.51-4.48-4.53-8.34-5.64-14.48c29.63,11.17,59.02,11.04,89.16,3.34
			c-0.71,2.19-1.1,3.4-1.85,5.75c6.29-3.76,10.61-8.28,16.47-10.5c11.855-4.437,22.979-10.626,33-18.36
			c23.8-18.47,39.58-41.89,43.8-72.32c0.51-3.61-0.44-7.88,3.24-10.61C275.16,126.87,275.72,126.36,274.66,126z M140.79,144.54
			c0.32-15.48,0.12-31,0.12-46.44h0.71c0-15.65,0.08-31.3-0.06-46.95c0-2.7,0.12-4.24,3.38-4.58c12.06-1.25,24.06-3.32,35.52-7.49
			c3.58-1.3,4.8,1.2,6.21,3.34c11.441,17.407,19.392,36.871,23.41,57.31c2.553,12.558,3.929,25.327,4.11,38.14
			c0,2.77-0.48,3.91-3.6,4.44c-21.315,3.682-42.813,6.209-64.4,7.57C141.69,150.16,140.69,148.98,140.79,144.54z M91.88,44.81
			c2.14-3.54,4.25-4.17,8.06-3.21c9,2.27,18.13,4.41,27.44,5.11c3.51,0.27,4.42,1.56,4.39,4.83c-0.12,15.66-0.05,31.32-0.05,47
			L131,98.61c0,15.49-0.07,31,0.07,46.47c0,3.2-0.72,4.45-4.15,4c-19.004-2.18-37.801-5.885-56.21-11.08
			c-2.63-0.74-2.63-2.54-2.74-4.58c-0.66-12.43,1.49-24.57,4.14-36.61C76.11,78.53,82.11,61.01,91.88,44.81z M47.42,50.32
			c6.558-7.543,13.813-14.451,21.67-20.63c2.47-1.91,4.16-2.1,6.22,0.38c1.224,1.363,2.627,2.553,4.17,3.54c5.72,4,5.86,4,2.47,10
			c-15.403,26.775-23.541,57.111-23.61,88c0,3.49-1.29,3.21-3.79,2.57c-11.4-2.93-21.4-8.93-31.68-14.33
			c-2.87-1.51-1.26-4.14-1.87-6.65C23.22,89.72,31.48,68.4,47.42,50.32z M56.64,202c-18.24-17.07-30.43-37.6-35-62.36
			c-0.57-3.06-1.91-7.32,0.22-8.93c1.92-1.44,5.23,1.82,7.68,3.36c7.962,4.845,16.664,8.355,25.76,10.39
			c2.53,0.62,3.72,1.66,4.12,4.54c2.22,15.81,3.07,31.81,6.63,47.42c0.95,4.35,2.28,8.63,3.59,13.58
			C64.777,208.31,60.341,205.58,56.64,202z M178.62,224c-25.73,7.34-51.22,5.47-77-0.07c-13.5-2.91-20.65-9.85-23.52-23.17
			c-3.43-15.95-6.87-31.86-8.67-48.1c-0.32-3-0.32-4.67,3.71-3.72c17.455,4.258,35.155,7.441,53,9.53c3.53,0.39,4.58,1.75,4.41,5.4
			c-0.5,10.64-1.12,21.31,0.49,31.93c0.427,3.177,1.31,6.275,2.62,9.2c3.59-6.51,4.88-13.14,5.41-19.92c0.54-7,0.8-14,1-21
			c0.08-3.28,1.18-4.68,4.71-4.71c21.39-0.2,42.4-4.07,63.49-7c4.64-0.66,5.44,0.67,4.69,4.78c-3.22,18.356-9.06,36.154-17.34,52.85
			C192.334,216.976,186.096,222.113,178.62,224z M204.92,211.93c10.321-18.094,16.534-38.237,18.2-59c0.18-2.16,1-3.32,3.07-3.86
			c12.1-3.06,23.63-7.75,35.05-12.86C264,159,228.23,207.64,204.92,211.93z M258.71,129.14c-10.41,2.83-20.78,5.85-31,9.15
			c-3.6,1.16-3.64-0.25-3.77-3.06c-1.07-22.69-4.18-45-12.85-66.22c-4.65-11.39-9.41-22.74-16.95-32.62
			c-1.63-2.14-1.49-3.56,0.39-5.46c1.858-1.878,4.168-3.77,4.608-6.768c-0.046,0.002-0.092-0.006-0.138-0.002l0.16-0.1
			c-0.005,0.036-0.017,0.067-0.022,0.102c1.296-0.062,2.576,0.315,3.622,1.088c13.28,7.67,26.2,15.87,36.89,27
			C251.35,64.5,256.43,80,260,96c1.95,8.76,3.45,17.61,3.33,26.67C263.28,126.08,262.33,128.15,258.71,129.14z"/>
	</g>
</g>
</svg>
