<?xml version="1.0" encoding="utf-8"?>
<!-- Generator: Adobe Illustrator 23.0.3, SVG Export Plug-In . SVG Version: 6.00 Build 0)  -->
<svg version="1.1" xmlns="http://www.w3.org/2000/svg" xmlns:xlink="http://www.w3.org/1999/xlink" x="0px" y="0px"
	 viewBox="0 0 109.867 95.107" enable-background="new 0 0 109.867 95.107" xml:space="preserve">
<g id="Layer_2">
</g>
<g id="Capa_1">
	<path fill="#FF0700" d="M109.691,29.761C108.254,13.58,96.824,0.002,80.952,0.002c-11.782,0-21.912,7.344-26.347,17.854
		C50.171,7.346,40.7,0,28.915,0C13.044,0,1.613,13.578,0.176,29.759c0,0-0.776,4.017,0.932,11.248
		c2.325,9.849,7.79,18.601,15.158,25.277l31.759,28.823h0.01V48.193h13.23v46.914H61.3l32.303-28.821
		c7.368-6.678,12.833-15.428,15.158-25.277C110.467,33.778,109.691,29.761,109.691,29.761z M54.706,43.557
		c-4.661,0-7.968-3.608-7.968-8.119c0-4.661,3.458-8.269,8.269-8.269c4.961,0,8.119,3.608,8.119,8.269
		C63.275,39.949,59.968,43.557,54.706,43.557z"/>
</g>
</svg>
