<?xml version="1.0" encoding="utf-8"?>
<!-- Generator: Adobe Illustrator 23.0.3, SVG Export Plug-In . SVG Version: 6.00 Build 0)  -->
<svg version="1.1" id="Layer_1" xmlns="http://www.w3.org/2000/svg" xmlns:xlink="http://www.w3.org/1999/xlink" x="0px" y="0px"
	 viewBox="0 0 904.76 301.43" enable-background="new 0 0 904.76 301.43" xml:space="preserve">
<title>KIN -found</title>
<g>
	<path d="M156.4,301.43c-18.6-0.48-33.38-2.56-47.89-6.65c-4.36-1.22-5.78-2.55-4-7.53c6.65-18,12.76-36.18,18.84-54.37
		c1.36-4.08,2.53-5.72,7.56-4.44c32.31,8.17,70.41-6.81,88.13-34.78c3.32-5.23,5.52-5.94,11-3.13c16.36,8.3,32.88,16.38,49.8,23.47
		c7.79,3.26,6.91,6.33,3.4,12.17C253.69,275.39,209.53,299.17,156.4,301.43z"/>
	<path d="M223.37,83c-3.72,1.59-6.73,4-6.31,8.6c0.47,5.1,4.4,6.76,8.47,8.35c4.73,1.85,9.39,3.89,14.08,5.86
		c13.6,5.69,22.08,0.31,22.91-14.47c0.38-6.767,0.817-13.537,1.31-20.31c0.3-4.07-1.08-7.23-4.66-9.24
		c-2.7-1.53-6.19-1.83-7.85,0.52c-4.34,6.1-6.44,1.48-9.2-1.27C220.19,39.21,193.71,27,163,24.64
		c-54.15-4.21-94.49,19.2-123.6,63.55c-4,6.1-6.45,6.24-11.08,2c-1.273-1.118-2.641-2.122-4.09-3c-5.77-3.62-6.63-7.2-2.69-13.64
		c35.83-58.58,127.44-107.43,218.86-43c2.54,1.79,4.93,3.81,7.49,5.56c16.4,11.15,25.91,24.89,20.78,46.23
		c-2.35,9.75-1.81,20.23-2.19,30.4c-0.26,6.88-2.76,9.47-9.55,6.6c-14.56-6.17-29.21-12.14-43.71-18.45
		c-2.76-1.2-5.16-3.41-7.49-5.42c-37.58-32.4-86.46-27.89-117,11.33c-6.06,7.79-12.39,2.89-18.34,2.14
		c-9.52-1.2-9.44-1.85-4.24-10.2C100.84,42.9,176.6,34.38,222.48,81.1C222.856,81.693,223.156,82.331,223.37,83z"/>
	<path d="M243.24,70.63c-8.12-0.71-11.09,3.49-13.12,9.22C207.39,56.28,180.33,43.83,148,45c-39.16,1.46-68.76,19.69-89.14,53
		c-3.48,5.71-13.07,6-16.76,0.46c-1.93-2.91,0.8-4.81,1.93-6.74c18.7-32,46.16-52.63,82.53-59.6
		C171.18,23.65,209.6,36.63,243.24,70.63z"/>
	<path d="M58.07,268.76c-2.38-1.79-3.55-2.52-4.55-3.43c-4-3.62-8-7.17-11.77-11c-4.24-4.25-10.41-8.28-1.86-14.52
		c2.2-1.61,0.48-4.86,0-7.27c-2-10.813-4.123-21.61-6.37-32.39c-0.83-4-1.6-7.61,3.2-10c4.51-2.28,8.1-5.29,13.68-1.25
		c8,5.77,16.72,10.47,25.2,15.53c2,1.21,3.9,3.43,6.85,1.54c2.48-1.59,5-4.85,8.24-2.47c3.59,2.65,6.66,6.05,9.78,9.29
		c1.83,1.89-0.4,3-1.33,4.13c-12.967,16-25.967,32-39,48C59.341,266.138,58.649,267.423,58.07,268.76z"/>
	<path d="M683.57,72.22c0-12.83,0.11-23.26,0-33.68c-0.09-5.54,1.58-10,7.65-10c5.9,0.05,7.87,4.33,7.83,9.94
		c-0.107,16.98-0.107,33.957,0,50.93c0,4.6-0.7,8.62-5.68,10.14c-4.66,1.42-8.26-0.6-11.07-4.27
		c-9.147-11.873-18.247-23.767-27.3-35.68c-0.73-1.302-2.108-2.105-3.6-2.1v27.33c0.109,2.546,0.082,5.097-0.08,7.64
		c-0.46,4.44-2.76,7.61-7.52,7.59C638.66,100,636,97,636,91.92c-0.06-18.39,0-36.78,0-55.17c-0.215-3.545,2.084-6.754,5.51-7.69
		c4.94-1.63,8.92,0.17,11.95,4.1c8,10.29,15.81,20.67,23.73,31C678.78,66.31,680.51,68.4,683.57,72.22z"/>
	<path d="M3.08,122.91c20.65,15,43,21.5,67.42,21.1c2.81,0,4.17,0.88,4.06,3.88c-0.2,5.92-0.17,11.85-0.3,17.77
		c-0.09,4.15-3,5.81-6.4,6.89c-18.34,5.83-37.09,6.81-56.09,4.47c-6.16-0.76-9.61-4.42-10.64-10.34
		C-1.36,152.27,0.7,138.1,3.08,122.91z"/>
	<path d="M711.78,64c0-8.18,0.09-16.37,0-24.56c-0.12-7,2.92-10.58,10.07-10.55c11.57,0.06,23.15,0,34.72,0c4.57,0,8.89,1,9.11,6.57
		c0.23,5.94-4,7.49-9.06,7.5c-7.34,0-14.7,0.31-22-0.1c-5.4-0.3-7.41,1.26-7.22,7c0.16,5.1,0.8,7.93,6.89,7.4s12.41-0.1,18.62-0.12
		c5,0,8.54,2.14,8.35,7.33c-0.18,4.75-3.77,6.53-8.31,6.5c-6.21,0-12.47,0.46-18.62-0.14c-7-0.68-6.59,3.29-6.91,8.2
		c-0.4,5.92,1.95,7.2,7.27,6.94c7.6-0.39,15.24,0,22.86-0.15c5-0.09,8.68,1.69,8.74,6.89s-3.83,7-8.68,7
		c-12.14-0.04-24.28-0.04-36.42,0c-6.36,0-9.29-3.33-9.33-9.45C711.74,81.53,711.79,72.77,711.78,64z"/>
	<path d="M775.63,64.12c0-8.19,0.21-16.39-0.07-24.58c-0.24-7.14,2.94-10.57,10-10.58c11.59,0,23.18-0.05,34.76,0
		c4.93,0,9.6,1.31,9.32,7.27c-0.27,5.8-5,6.81-9.89,6.79c-7.35,0-14.72,0.38-22-0.13c-6.11-0.43-6.74,2.42-6.74,7.47
		c0,4.86,0.84,7.38,6.43,6.91c5.33-0.45,10.73-0.09,16.1-0.1c5.17,0,11.18-0.46,11.4,6.74S819.1,71,813.88,71s-10.21,0.34-15.25-0.1
		c-5.75-0.5-7.69,1.17-7.8,7.34c-0.12,6.64,2.07,8.22,8.2,7.79c7.31-0.51,14.69-0.06,22-0.14c4.78,0,8.76,1.26,8.93,6.69
		s-3.71,7.12-8.5,7.13c-12.147,0-24.297,0-36.45,0c-6.75,0-9.6-3.51-9.46-10.15C775.76,81.08,775.63,72.6,775.63,64.12z"/>
	<path d="M341.8,59.33c8.3-8.81,16.55-17.66,24.92-26.4c3.76-3.93,8.3-7.15,13.12-2.23c5,5.08,1.14,9.2-2.81,12.86
		c-4.57,4.22-8.95,8.67-13.76,12.61c-3.34,2.74-3.68,4.67-0.7,8.08c6.12,7,11.73,14.52,17.58,21.79c3.39,4.21,5.07,8.71-0.06,12.48
		c-4.9,3.6-9,1.26-12.3-3.1c-4.61-6.08-9.15-12.23-14-18.11c-1.82-2.21-3.14-7.2-6.2-5.65c-3.87,2-8.57,4.75-8.16,10.74
		c0.21,3.1,0.06,6.22,0,9.33c-0.05,5-2.46,8.22-7.59,8.28S324,97.15,324,92c-0.07-18.38,0-36.77-0.05-55.15
		c0-5.14,2.79-8.26,7.64-8.34c5.46-0.08,7.94,3.5,7.9,8.9c-0.06,6.74,0,13.48,0,20.22L341.8,59.33z"/>
	<path d="M520.5,28.11c6.819,0.026,13.511,1.851,19.4,5.29c3.76,2.14,6.37,5.2,4.19,9.71s-6.19,5.48-10.7,3.21
		c-4.83-2.43-9.68-4.76-15.26-4.48c-3.87,0.2-7.59,1.2-8.33,5.67c-0.7,4.27,2.66,6,5.94,7.06c5.88,2,12,3.39,17.77,5.61
		c10.09,3.88,14.42,10.44,13.8,19.92c-0.66,10.07-6.71,17.12-17,19.53c-11.59,2.71-22.44,0.38-32.6-5.44
		c-4.5-2.58-8.13-6.1-4.58-11.61c3.16-4.92,7.57-3.89,11.81-1.07c5.32,3.52,11.11,5.58,17.55,5.18c4-0.24,8.32-0.7,9-5.8
		c0.67-4.71-3.08-6.3-6.6-7.51c-4.53-1.56-9.21-2.68-13.79-4.13c-13-4.13-18.54-11.52-16.94-22.61c1.57-10.91,10.3-18,22.92-18.52
		C518.24,28.07,519.37,28.12,520.5,28.11z"/>
	<path d="M302,156c0,13,0,13.08-12.92,11.83c-17.387-1.7-34.747-3.48-52.08-5.34c-3.12-0.33-7.34,0.56-6.82-5
		c0.39-4.15-1.83-9.59,5.42-10.15c1.77-0.14,4.85,0.18,4.14-2.73c-1.83-7.59,3.76-7.59,8.28-8.64c10.7-2.47,21.47-4.66,32.14-7.23
		c5.32-1.29,9-0.66,9.33,5.72c0.22,4.39,1.74,6.77,6.79,5.87c3.86-0.68,5.67,1.79,5.76,5.5C302.06,149.24,302,152.62,302,156z"/>
	<path d="M884.58,165c0-10.94,0.07-19.39,0-27.84c-0.06-4.92,1.64-8.71,7-8.57c4.91,0.14,6.27,3.93,6.25,8.4
		c-0.06,14.12-0.06,28.24,0,42.36c0,3.61-0.47,7-4.25,8.39c-4.33,1.63-7.62-0.33-10.25-3.8c-7.34-9.66-14.73-19.29-22.06-29
		c-0.587-0.949-1.08-1.954-1.47-3l-2.12,1c0,8.85-0.08,17.7,0,26.54c0.05,4.73-0.84,8.9-6.55,8.79s-6.29-4.47-6.26-9.09
		c0.08-13.267,0.08-26.537,0-39.81c0-4.34-0.35-8.9,4.88-10.5s8.45,1.58,11.34,5.4C868.36,143.88,875.72,153.43,884.58,165z"/>
	<path d="M551.2,165.36c0-10.91,0.09-19.5,0-28.09c-0.06-4.81,1.13-8.8,6.71-8.68c5.17,0.11,6,4.1,6,8.46
		c-0.06,14.11,0,28.23,0,42.35c0,3.49,0,7-4.07,8.4s-7.18-0.09-9.66-3.33c-7.54-9.87-15.09-19.72-22.57-29.64
		c-0.527-1.009-0.901-2.091-1.11-3.21l-2.35,1.38c0,8.59,0,17.17,0,25.75c0,4.88-0.52,9.6-6.81,9.44c-5.7-0.14-6.29-4.56-6.28-9.14
		c0.05-13.55,0.07-27.1,0-40.65c0-4.18,0.25-8.1,5-9.57c4.4-1.36,7.66,0.66,10.27,4.06C534.17,143.11,542,153.3,551.2,165.36z"/>
	<path d="M898,213.23c1.88,1.9,0.57,3.35-1.09,3.71c-2.507,0.385-5.047,0.509-7.58,0.37c-185.713,0-371.417-0.057-557.11-0.17
		c-2.83,0-8.7,3.69-8.5-3.94c3.07-2,6.54-1.48,9.89-1.48c184.84,0,369.677,0,554.51,0C891.48,211.72,895,211.14,898,213.23z"/>
	<path d="M498.65,151.7c0,4.23,0.15,8.47,0,12.7c-0.66,15.46-9.78,24.33-25.35,24.79c-15.07,0.44-24.95-7.64-26.27-22.71
		c-0.88-10.09-0.39-20.31-0.35-30.46c0-4.14,2-7.35,6.43-7.43c4.89-0.09,6.85,3.11,6.82,7.77c0,8.19-0.09,16.37,0,24.56
		c0.13,10.83,4.54,16.15,13.09,16c8.19-0.11,12.31-5.23,12.42-15.67c0.08-8.18,0-16.37,0-24.55c0-4.47,1.56-8.11,6.52-8.16
		s6.81,3.22,6.76,7.88c0,5.08,0,10.16,0,15.24L498.65,151.7z"/>
	<path d="M324.26,158.58c0-6.78,0.17-13.56-0.06-20.34c-0.22-6.4,2.61-9.5,9-9.49c9.61,0,19.21,0,28.82,0c4,0,7.75,1,7.9,5.73
		c0.17,5.34-3.81,6.21-8.16,6.18c-6.22,0-12.46,0.31-18.65-0.1c-5.54-0.36-5.63,2.68-5.69,6.8s0.66,6.42,5.49,6.12
		c5.35-0.34,10.73-0.09,16.1-0.05c3.75,0,7,1.23,7.2,5.46c0.21,4.74-3.28,6.2-7.32,6.33c-5.08,0.255-10.17,0.255-15.25,0
		c-4.87-0.33-6.63,1.52-6.18,6.3c0.235,3.386,0.235,6.784,0,10.17c-0.17,3.89-2.14,6.51-6.22,6.61c-4.42,0.1-6.84-2.47-6.92-6.82
		C324.16,173.85,324.26,166.21,324.26,158.58z"/>
	<path d="M13.65,91.32c17,16.19,37,24.57,59.12,28.46c2.43,0.42,7.8-1.47,6.44,3.52c-1.17,4.29-0.26,11.78-7,12
		c-23.61,0.7-45.13-5.84-63.84-20.67c-1.948-1.322-2.668-3.85-1.71-6C8.6,103.08,9.91,97.28,13.65,91.32z"/>
	<path d="M709,163.28c0-2.27,0-4.53,0-6.79c0-4.52,1.23-9.68-0.53-13.4c-2.23-4.72-8.12-1.45-12.32-2.31
		c-3.11-0.63-5.31-2-5.61-5.34c-0.34-3.8,1.93-6.32,5.32-6.4c12.993-0.3,25.993-0.3,39,0c2.992-0.076,5.48,2.288,5.556,5.281
		c0.008,0.331-0.014,0.662-0.066,0.989c-0.3,3.69-2.94,5.06-6.4,5.55c-11.76,1.68-11.75,1.73-11.75,14c0,8.21,0,16.41,0,24.61
		c0,4.7-1.14,8.79-6.76,8.82c-5.83,0-6.52-4.24-6.46-8.88C709.08,174,709,168.65,709,163.28z"/>
	<path d="M392.57,63.38c0-8.44,0-16.89,0-25.33c0-5.52,2.27-9.71,8.23-9.52c5.38,0.17,7.62,4.06,7.62,9.29c0,17.73,0,35.47,0,53.2
		c0,5.17-2.14,8.94-7.78,9s-7.93-3.62-8-8.8c-0.09-9.29,0-18.58,0-27.87L392.57,63.38z"/>
	<path d="M324,211.79c2.43-2.94,5.78-1.74,8.73-1.74C518.177,210.017,703.6,210,889,210c3,0,6.3-1.16,8.76,1.7
		c-3,1.46-6.12,0.74-9.18,0.74c-185.133,0.04-370.263,0.04-555.39,0C330.15,212.48,327,213.16,324,211.79z"/>
	<path d="M297.92,190.51c-0.28,8.22-3.77,10.74-12.1,8c-17.88-5.927-35.757-11.863-53.63-17.81c-2.78-0.93-6.26-1.25-4.89-6
		c1.44-5,4.57-2.82,7.35-2.2c19.23,4.25,38.47,8.47,57.65,12.94C294.52,185.89,298.56,185.12,297.92,190.51z"/>
	<path d="M84,285.27c-3.35-2-7.68-3.55-10.33-6.56c-2-2.23,1.78-4.85,3.16-7.1c9.62-15.64,19.42-31.18,29.23-46.71
		c1.64-2.6,2.33-6.57,7.39-3.58c4.68,2.78,1.64,5,0.44,7.5c-8.407,17.253-16.857,34.483-25.35,51.69
		C87.61,282.4,87.35,285,84,285.27z"/>
	<path d="M607.52,84.05c0-7,0-11.74,0-16.46c0-2.49,1.06-4.69,3.79-4.69s4,2.06,4,4.59c0.08,8.48,0,17,0,25.45
		c0,2.17-0.87,3.89-3,4.64c-2.65,1-4.3-0.8-5.71-2.59c-4.38-5.54-8.66-11.15-13.58-17.52c-2,5.08-0.79,9.74-1,14.21
		c-0.16,3.06-0.44,6.09-4.17,6.06c-3.2,0-3.81-2.84-3.81-5.57c0-7.92,0-15.84,0-23.76c0-2.46,0.79-4.53,3.23-5.4s4.4,0.59,5.84,2.41
		C597.49,71,601.75,76.56,607.52,84.05z"/>
	<path d="M761,158.61c0,7.333,0,14.667,0,22c0,4.55-1.66,7.91-6.8,7.68c-4.55-0.2-6.15-3.3-6.14-7.53c0-14.94,0-29.89,0-44.84
		c0-4.27,2.06-7.27,6.43-7.36s6.45,2.93,6.47,7.21C761,143.38,761,151,761,158.61z"/>
	<path d="M568.64,80.13c0-4.21,0-8.41,0-12.61c0-2.52,1.28-4.55,3.85-4.71s4.14,1.79,4.17,4.29c0.113,8.96,0.113,17.927,0,26.9
		c0.061,2.048-1.55,3.758-3.598,3.818c-0.044,0.001-0.088,0.002-0.132,0.002c-2.7,0.09-4.11-1.72-4.2-4.24c-0.15-4.48,0-9,0-13.45
		L568.64,80.13z"/>
	<path d="M873.19,29.63c-7.82-0.89-15.78-0.5-23.68-0.68c-7.16-0.16-10.2,3.4-10,10.48c0.23,8.18,0.06,16.38,0.06,24.57
		c0,8.75,0.02,17.51,0,26.27c-0.02,5.66,2.26,9.37,8.36,9.37c8.19,0.06,16.43,0.49,24.56-0.28c18.66-1.77,31.98-16.23,32.28-34.23
		C905.08,46.24,892.54,31.82,873.19,29.63z M871.02,85.26c-0.28,0-0.54,0.14-0.82,0.19c-14.29,2.28-15.08,1.61-15.08-12.82v-8.45
		v-8.44c0-13.27,0-13.27,13.1-12.52c11.85,0.67,19.42,8.16,20,19.76C888.83,75.04,882.61,83.09,871.02,85.26z"/>
	<path d="M455.05,29.54c-7.83-0.82-15.79-0.54-23.69-0.54c-6.67-0.01-9.59,3.52-9.42,10.2c0.22,8.42,0.06,16.95,0.06,25.42
		c0,8.76,0,17.51,0.01,26.27c0.02,5.41,2.71,8.63,8.18,8.7c8.46,0.12,17.02,0.59,25.39-0.35c19.15-2.14,31.86-16.85,31.62-35.59
		C486.97,45.32,474.28,31.54,455.05,29.54z M469.91,71.64c-3.24,10.46-20.27,18.27-30.15,14c-2.5-1.09-2.05-3-2.07-4.9
		c-0.06-5.36-0.02-10.74-0.02-16.06v-11c0-10.74,0-10.74,10.94-10.51C465.09,43.5,474.67,56.31,469.91,71.64z"/>
	<path d="M803.32,128c-18.06-0.08-31.71,12.84-32,30.26c-0.29,17.12,13.8,30.88,31.43,31s31.8-13.4,32-30.52
		C834.96,141.39,821.32,128.08,803.32,128z M803.2,177.07c-10.1-0.02-17.86-8.07-17.92-18.51c-0.06-10.71,7.39-18.53,17.65-18.53
		c10.091,0.083,18.214,8.309,18.17,18.4C821.18,168.7,813.1,177.09,803.2,177.07z"/>
	<path d="M607.63,129.62c-7.58-1.52-15.22-0.77-22.83-0.77c-5.12,0.03-7.61,3.16-7.61,8.23c0,6.78,0,13.567,0,20.36
		c0,7.35,0.03,14.7,0.02,22.05c-0.06,5.44,2.28,8.6,8,8.6c6.49-0.02,13.04,0.3,19.49-0.27c15.74-1.37,26.94-13.18,27.47-28.28
		C632.7,144.44,623.06,132.73,607.63,129.62z M601.91,176.17c-11.41,0.88-11.41,0.88-11.41-10.84l-0.03-6.75v-6.77
		c0-12,1-12.9,12.87-11c9.55,1.55,15.25,8.56,15,18.44S611.84,175.41,601.91,176.17z"/>
	<path d="M405.42,128c-18,0.18-31.14,13.29-31,31c0.14,17.43,14.1,30.62,31.82,30.23s31.53-14.17,31.31-31.23
		C437.32,140.68,423.42,127.82,405.42,128z M406.21,177.06c-9.94,0.13-17.93-7.82-18.1-18.3c-0.17-10.76,7.14-18.62,17.4-18.76
		c10.05-0.12,18.08,7.87,18.3,18.18C424.03,168.49,416.15,176.93,406.21,177.06z"/>
	<path d="M691.92,176.75c-6.04-13.64-12.17-27.25-18.17-40.89c-1.77-4-3.67-7.69-8.85-7.85c-5.52-0.18-7.87,3.45-9.78,7.82
		c-6,13.693-12.053,27.36-18.16,41c-1.8,4.03-3.87,8.4,1.54,10.83c5.63,2.54,7.94-1.72,9.94-6.17c1.18-2.71,1.43-6.61,5.43-6.71
		c7.32-0.19,14.76-0.7,21.94,0.37c4.09,0.64,3.74,6.44,5.88,9.64c2,2.97,4.56,4.21,7.93,3.21c2.72-0.78,4-2.91,4.32-6
		C693.34,180.45,692.72,178.59,691.92,176.75z M662.17,163.52c-4.23-0.2-6.69-0.67-3.95-5.72c2.11-3.88,3.5-8.14,5.93-13.94
		c2.11,4.78,3.4,7.57,4.6,10.4C672.92,164.11,672.89,164.03,662.17,163.52z"/>
</g>
</svg>
