<?xml version="1.0" encoding="utf-8"?>
<!-- Generator: Adobe Illustrator 23.0.3, SVG Export Plug-In . SVG Version: 6.00 Build 0)  -->
<svg version="1.1" id="Layer_1" xmlns="http://www.w3.org/2000/svg" xmlns:xlink="http://www.w3.org/1999/xlink" x="0px" y="0px"
	 viewBox="0 0 467.211 467.211" enable-background="new 0 0 467.211 467.211" xml:space="preserve">
<g>
	<path fill="#FFFFFF" d="M413.917,96.775H53.295c-6.369,0-11.551,5.181-11.551,11.55v213.182c0,6.369,5.182,11.55,11.551,11.55
		h360.622c6.368,0,11.55-5.181,11.55-11.55V108.326C425.467,101.957,420.285,96.775,413.917,96.775L413.917,96.775z
		 M415.467,321.507c0,0.855-0.695,1.55-1.55,1.55H53.295c-0.855,0-1.551-0.696-1.551-1.55V108.326c0-0.855,0.695-1.55,1.551-1.55
		h360.622c0.854,0,1.55,0.696,1.55,1.55L415.467,321.507L415.467,321.507z"/>
	<path fill="#FFFFFF" d="M459.711,340.558h-11.744V102.843c0-15.752-12.815-28.568-28.568-28.568H47.813
		c-15.753,0-28.568,12.815-28.568,28.568v237.714H7.5c-4.143,0-7.5,3.358-7.5,7.5v20.605c0,13.384,10.889,24.272,24.272,24.272
		h418.666c13.384,0,24.272-10.889,24.272-24.272v-20.605C467.211,343.916,463.854,340.558,459.711,340.558z M34.244,102.843
		c0-7.481,6.087-13.568,13.568-13.568h371.586c7.481,0,13.568,6.086,13.568,13.568v237.714H34.244V102.843L34.244,102.843z
		 M211.605,355.558h44v3.922c0,1.755-1.428,3.184-3.184,3.184h-37.633c-1.756,0-3.184-1.428-3.184-3.184v-3.922H211.605z
		 M452.212,368.663c0,5.113-4.159,9.272-9.272,9.272H24.273c-5.113,0-9.272-4.16-9.272-9.272v-13.105h11.744h174.861v3.922
		c0,7.27,5.914,13.184,13.184,13.184h37.633c7.27,0,13.184-5.914,13.184-13.184v-3.922h174.861h11.744L452.212,368.663
		L452.212,368.663z"/>
</g>
</svg>
