<?xml version="1.0" encoding="utf-8"?>
<!-- Generator: Adobe Illustrator 23.0.3, SVG Export Plug-In . SVG Version: 6.00 Build 0)  -->
<svg version="1.1" id="icons" xmlns="http://www.w3.org/2000/svg" xmlns:xlink="http://www.w3.org/1999/xlink" x="0px" y="0px"
	 viewBox="0 0 512 512" enable-background="new 0 0 512 512" xml:space="preserve">
<g>
	<path fill="#FFFFFF" d="M24,427.992h464c13.232,0,24-10.768,24-24V380V132v-23.992c0-13.232-10.768-24-24-24H24
		c-13.232,0-24,10.768-24,24V132v248v23.992C0,417.224,10.768,427.992,24,427.992z M488,411.992H24c-4.416,0-8-3.584-8-8v-1.472
		c2.512,0.904,5.176,1.48,8,1.48h464c2.824,0,5.488-0.576,8-1.48v1.472C496,408.408,492.416,411.992,488,411.992z M16,108.008
		c0-4.408,3.584-8,8-8h464c4.416,0,8,3.592,8,8V132v89.472c-2.512-0.896-5.184-1.48-8.008-1.48c-2.816,0-5.472,0.576-7.976,1.472
		V116c0-4.416-3.576-8-8-8H40c-4.424,0-8,3.584-8,8v118.84C31.416,231,28.232,228,24.232,228h-0.08c-4.416,0-7.952,3.584-7.952,8
		s3.616,8,8.04,8c4,0,7.176-3,7.768-6.84V372c0,4.424,3.576,8,8,8h432.016c4.424,0,8-3.576,8-8V266.512
		c2.504,0.888,5.168,1.472,7.976,1.472c2.824,0,5.496-0.576,8.008-1.48V380c0,4.416-3.584,8-8,8H24c-4.416,0-8-3.584-8-8V132
		V108.008z M464.016,243.76c0,0.08-0.024,0.152-0.024,0.232s0.024,0.152,0.024,0.232V364H48V124h416.016V243.76z M480.016,243.872
		c0.064-4.352,3.6-7.88,7.976-7.88c4.416,0,8,3.592,8,8s-3.584,7.992-8,7.992c-4.376,0-7.912-3.528-7.976-7.872V243.872z"/>
</g>
</svg>
